{
	"asset":{
		"generator":"Khronos glTF Blender I/O v3.5.30",
		"version":"2.0"
	},
	"scene":0,
	"scenes":[
		{
			"name":"Scene",
			"nodes":[
				0
			]
		}
	],
	"nodes":[
		{
			"mesh":0,
			"name":"tiger_only",
			"rotation":[
				0.006704099476337433,
				-0.7067931294441223,
				0.024381430819630623,
				0.7069682478904724
			],
			"scale":[
				9.76381778717041,
				9.763816833496094,
				9.763815879821777
			]
		}
	],
	"materials":[
		{
			"doubleSided":true,
			"name":"soldier_mtl.022",
			"pbrMetallicRoughness":{
				"baseColorTexture":{
					"index":0
				},
				"metallicFactor":0,
				"roughnessFactor":0.5
			}
		},
		{
			"doubleSided":true,
			"name":"soldier_mtl.023",
			"pbrMetallicRoughness":{
				"baseColorTexture":{
					"index":1
				},
				"metallicFactor":0,
				"roughnessFactor":0.5
			}
		}
	],
	"meshes":[
		{
			"name":"mesh.007",
			"primitives":[
				{
					"attributes":{
						"POSITION":0,
						"TEXCOORD_0":1,
						"NORMAL":2
					},
					"indices":3,
					"material":0
				},
				{
					"attributes":{
						"POSITION":4,
						"TEXCOORD_0":5,
						"NORMAL":6
					},
					"indices":7,
					"material":1
				}
			]
		}
	],
	"textures":[
		{
			"sampler":0,
			"source":0
		},
		{
			"sampler":0,
			"source":0
		}
	],
	"images":[
		{
			"bufferView":4,
			"mimeType":"image/png",
			"name":"soldier_BaseColor"
		}
	],
	"accessors":[
		{
			"bufferView":0,
			"componentType":5126,
			"count":12633,
			"max":[
				0.04306574910879135,
				0.08033889532089233,
				0.14742004871368408
			],
			"min":[
				-0.002809820231050253,
				-0.08465654402971268,
				-0.21401982009410858
			],
			"type":"VEC3"
		},
		{
			"bufferView":1,
			"componentType":5126,
			"count":12633,
			"type":"VEC2"
		},
		{
			"bufferView":2,
			"componentType":5126,
			"count":12633,
			"type":"VEC3"
		},
		{
			"bufferView":3,
			"componentType":5123,
			"count":51372,
			"type":"SCALAR"
		},
		{
			"bufferView":5,
			"componentType":5126,
			"count":12914,
			"max":[
				0.0069305263459682465,
				0.08032317459583282,
				0.14620278775691986
			],
			"min":[
				-0.0367346815764904,
				-0.08456870913505554,
				-0.21405383944511414
			],
			"type":"VEC3"
		},
		{
			"bufferView":6,
			"componentType":5126,
			"count":12914,
			"type":"VEC2"
		},
		{
			"bufferView":7,
			"componentType":5126,
			"count":12914,
			"type":"VEC3"
		},
		{
			"bufferView":8,
			"componentType":5123,
			"count":53436,
			"type":"SCALAR"
		}
	],
	"bufferViews":[
		{
			"buffer":0,
			"byteLength":151596,
			"byteOffset":0,
			"target":34962
		},
		{
			"buffer":0,
			"byteLength":101064,
			"byteOffset":151596,
			"target":34962
		},
		{
			"buffer":0,
			"byteLength":151596,
			"byteOffset":252660,
			"target":34962
		},
		{
			"buffer":0,
			"byteLength":102744,
			"byteOffset":404256,
			"target":34963
		},
		{
			"buffer":0,
			"byteLength":1839002,
			"byteOffset":507000
		},
		{
			"buffer":0,
			"byteLength":154968,
			"byteOffset":2346004,
			"target":34962
		},
		{
			"buffer":0,
			"byteLength":103312,
			"byteOffset":2500972,
			"target":34962
		},
		{
			"buffer":0,
			"byteLength":154968,
			"byteOffset":2604284,
			"target":34962
		},
		{
			"buffer":0,
			"byteLength":106872,
			"byteOffset":2759252,
			"target":34963
		}
	],
	"samplers":[
		{
			"magFilter":9729,
			"minFilter":9987
		}
	],
	"buffers":[
		{
			"byteLength":2866124,
			"uri":"data:application/octet-stream;base64,"
		}
	]
}
