{
	"asset":{
		"generator":"Khronos glTF Blender I/O v3.5.30",
		"version":"2.0"
	},
	"scene":0,
	"scenes":[
		{
			"name":"Scene",
			"nodes":[
				0
			]
		}
	],
	"nodes":[
		{
			"mesh":0,
			"name":"mesh.001",
			"rotation":[
				-0.7069683074951172,
				-0.024381432682275772,
				-0.7067930698394775,
				0.006704066414386034
			],
			"scale":[
				-9.004727363586426,
				-9.492914199829102,
				-9.492914199829102
			]
		}
	],
	"materials":[
		{
			"doubleSided":true,
			"name":"soldier_mtl.012",
			"pbrMetallicRoughness":{
				"baseColorTexture":{
					"index":0
				},
				"metallicFactor":0,
				"roughnessFactor":0.5
			}
		},
		{
			"doubleSided":true,
			"name":"soldier_mtl.013",
			"pbrMetallicRoughness":{
				"baseColorTexture":{
					"index":1
				},
				"metallicFactor":0,
				"roughnessFactor":0.5
			}
		},
		{
			"doubleSided":true,
			"name":"soldier_mtl.014",
			"pbrMetallicRoughness":{
				"baseColorTexture":{
					"index":2
				},
				"metallicFactor":0,
				"roughnessFactor":0.5
			}
		},
		{
			"doubleSided":true,
			"name":"soldier_mtl.015",
			"pbrMetallicRoughness":{
				"baseColorTexture":{
					"index":3
				},
				"metallicFactor":0,
				"roughnessFactor":0.5
			}
		}
	],
	"meshes":[
		{
			"name":"mesh.003",
			"primitives":[
				{
					"attributes":{
						"POSITION":0,
						"TEXCOORD_0":1,
						"TEXCOORD_1":2,
						"NORMAL":3
					},
					"indices":4,
					"material":0
				},
				{
					"attributes":{
						"POSITION":5,
						"TEXCOORD_0":6,
						"TEXCOORD_1":7,
						"NORMAL":8
					},
					"indices":9,
					"material":1
				},
				{
					"attributes":{
						"POSITION":10,
						"TEXCOORD_0":11,
						"TEXCOORD_1":12,
						"NORMAL":13
					},
					"indices":14,
					"material":2
				},
				{
					"attributes":{
						"POSITION":15,
						"TEXCOORD_0":16,
						"TEXCOORD_1":17,
						"NORMAL":18
					},
					"indices":19,
					"material":3
				}
			]
		}
	],
	"textures":[
		{
			"sampler":0,
			"source":0
		},
		{
			"sampler":0,
			"source":0
		},
		{
			"sampler":0,
			"source":0
		},
		{
			"sampler":0,
			"source":0
		}
	],
	"images":[
		{
			"bufferView":5,
			"mimeType":"image/png",
			"name":"soldier_BaseColor"
		}
	],
	"accessors":[
		{
			"bufferView":0,
			"componentType":5126,
			"count":9864,
			"max":[
				0.05403875559568405,
				-0.025246592238545418,
				0.17756788432598114
			],
			"min":[
				-0.023513877764344215,
				-0.09110955893993378,
				-0.15084022283554077
			],
			"type":"VEC3"
		},
		{
			"bufferView":1,
			"componentType":5126,
			"count":9864,
			"type":"VEC2"
		},
		{
			"bufferView":2,
			"componentType":5126,
			"count":9864,
			"type":"VEC2"
		},
		{
			"bufferView":3,
			"componentType":5126,
			"count":9864,
			"type":"VEC3"
		},
		{
			"bufferView":4,
			"componentType":5123,
			"count":24558,
			"type":"SCALAR"
		},
		{
			"bufferView":6,
			"componentType":5126,
			"count":615,
			"max":[
				0.026579061523079872,
				-0.025258388370275497,
				0.17233838140964508
			],
			"min":[
				-0.0027924091555178165,
				-0.07727222144603729,
				-0.14933864772319794
			],
			"type":"VEC3"
		},
		{
			"bufferView":7,
			"componentType":5126,
			"count":615,
			"type":"VEC2"
		},
		{
			"bufferView":8,
			"componentType":5126,
			"count":615,
			"type":"VEC2"
		},
		{
			"bufferView":9,
			"componentType":5126,
			"count":615,
			"type":"VEC3"
		},
		{
			"bufferView":10,
			"componentType":5123,
			"count":1530,
			"type":"SCALAR"
		},
		{
			"bufferView":11,
			"componentType":5126,
			"count":7747,
			"max":[
				0.0016303610755130649,
				-0.024876510724425316,
				0.17661795020103455
			],
			"min":[
				-0.05304618924856186,
				-0.09012211859226227,
				-0.1514567881822586
			],
			"type":"VEC3"
		},
		{
			"bufferView":12,
			"componentType":5126,
			"count":7747,
			"type":"VEC2"
		},
		{
			"bufferView":13,
			"componentType":5126,
			"count":7747,
			"type":"VEC2"
		},
		{
			"bufferView":14,
			"componentType":5126,
			"count":7747,
			"type":"VEC3"
		},
		{
			"bufferView":15,
			"componentType":5123,
			"count":22125,
			"type":"SCALAR"
		},
		{
			"bufferView":16,
			"componentType":5126,
			"count":608,
			"max":[
				0.0032065112609416246,
				-0.02490711212158203,
				0.17060847580432892
			],
			"min":[
				-0.028107743710279465,
				-0.07681780308485031,
				-0.15135054290294647
			],
			"type":"VEC3"
		},
		{
			"bufferView":17,
			"componentType":5126,
			"count":608,
			"type":"VEC2"
		},
		{
			"bufferView":18,
			"componentType":5126,
			"count":608,
			"type":"VEC2"
		},
		{
			"bufferView":19,
			"componentType":5126,
			"count":608,
			"type":"VEC3"
		},
		{
			"bufferView":20,
			"componentType":5123,
			"count":1524,
			"type":"SCALAR"
		}
	],
	"bufferViews":[
		{
			"buffer":0,
			"byteLength":118368,
			"byteOffset":0,
			"target":34962
		},
		{
			"buffer":0,
			"byteLength":78912,
			"byteOffset":118368,
			"target":34962
		},
		{
			"buffer":0,
			"byteLength":78912,
			"byteOffset":197280,
			"target":34962
		},
		{
			"buffer":0,
			"byteLength":118368,
			"byteOffset":276192,
			"target":34962
		},
		{
			"buffer":0,
			"byteLength":49116,
			"byteOffset":394560,
			"target":34963
		},
		{
			"buffer":0,
			"byteLength":1825513,
			"byteOffset":443676
		},
		{
			"buffer":0,
			"byteLength":7380,
			"byteOffset":2269192,
			"target":34962
		},
		{
			"buffer":0,
			"byteLength":4920,
			"byteOffset":2276572,
			"target":34962
		},
		{
			"buffer":0,
			"byteLength":4920,
			"byteOffset":2281492,
			"target":34962
		},
		{
			"buffer":0,
			"byteLength":7380,
			"byteOffset":2286412,
			"target":34962
		},
		{
			"buffer":0,
			"byteLength":3060,
			"byteOffset":2293792,
			"target":34963
		},
		{
			"buffer":0,
			"byteLength":92964,
			"byteOffset":2296852,
			"target":34962
		},
		{
			"buffer":0,
			"byteLength":61976,
			"byteOffset":2389816,
			"target":34962
		},
		{
			"buffer":0,
			"byteLength":61976,
			"byteOffset":2451792,
			"target":34962
		},
		{
			"buffer":0,
			"byteLength":92964,
			"byteOffset":2513768,
			"target":34962
		},
		{
			"buffer":0,
			"byteLength":44250,
			"byteOffset":2606732,
			"target":34963
		},
		{
			"buffer":0,
			"byteLength":7296,
			"byteOffset":2650984,
			"target":34962
		},
		{
			"buffer":0,
			"byteLength":4864,
			"byteOffset":2658280,
			"target":34962
		},
		{
			"buffer":0,
			"byteLength":4864,
			"byteOffset":2663144,
			"target":34962
		},
		{
			"buffer":0,
			"byteLength":7296,
			"byteOffset":2668008,
			"target":34962
		},
		{
			"buffer":0,
			"byteLength":3048,
			"byteOffset":2675304,
			"target":34963
		}
	],
	"samplers":[
		{
			"magFilter":9729,
			"minFilter":9987
		}
	],
	"buffers":[
		{
			"byteLength":2678352,
			"uri":"data:application/octet-stream;base64,"
		}
	]
}
